<?xml version="1.0" encoding="UTF-8" standalone="no" ?>
<!DOCTYPE svg PUBLIC "-//W3C//DTD SVG 1.1//EN" "http://www.w3.org/Graphics/SVG/1.1/DTD/svg11.dtd">
<svg width="200" height="200" viewBox="0 0 200 200" fill="none" xmlns="http://www.w3.org/2000/svg">
    <path d="M100 200C155.228 200 200 155.228 200 100C200 44.7715 155.228 0 100 0C44.7715 0 0 44.7715 0 100C0 155.228 44.7715 200 100 200Z" fill="#001E50" />
    <path d="M47.8185 109.689H36.879V126.567H26.2524V73.4337H48.6779C60.6328 73.4337 69.4622 80.6223 69.4622 91.5615C69.4622 98.9845 65.3992 104.689 59.07 107.579L72.9014 126.567H60.0079L47.8185 109.689ZM36.879 99.844H48.288C54.1484 99.844 58.9929 96.6404 58.9929 91.5615C58.9929 86.4826 54.1484 83.279 48.288 83.279H36.879V99.844Z" fill="white" />
    <path d="M113.845 126.567L109.547 122.504C105.249 125.942 100.17 127.739 94.3884 127.739C82.4334 127.739 74.4634 121.019 74.4634 111.018C74.4634 104.923 77.8234 99.8439 83.4493 96.9528C81.027 93.6711 79.933 90.8591 79.933 87.4982C79.933 78.5134 87.356 72.2614 96.8888 72.2614C106.5 72.2614 112.516 78.6688 113.61 88.0453H103.297C102.75 83.8258 100.328 81.4037 96.8116 81.4037C93.2955 81.4037 90.5596 83.9038 90.5596 87.6544C90.5596 91.7175 93.8415 94.8431 100.639 101.25L109.078 109.298L115.642 98.828H126.346L116.501 114.534C116.267 114.924 116.033 115.315 115.798 115.628L127.284 126.567H113.845ZM102.75 116.097L91.5764 105.549C90.873 104.845 90.1697 104.22 89.4667 103.595C86.2631 105.314 84.3879 107.893 84.3879 110.94C84.3879 115.081 88.8416 118.676 94.3893 118.676C97.2022 118.675 100.093 117.737 102.75 116.097Z" fill="white" />
    <path d="M154.713 109.689H143.774V126.567H133.147V73.4337H155.572C167.527 73.4337 176.357 80.6223 176.357 91.5615C176.357 98.9845 172.294 104.689 165.965 107.579L179.795 126.567H166.902L154.713 109.689ZM143.774 99.844H155.183C161.043 99.844 165.887 96.6404 165.887 91.5615C165.887 86.4826 161.043 83.279 155.183 83.279H143.774V99.844Z" fill="white" />
</svg>